<?xml version="1.0" encoding="utf-8"?>
<!-- Generator: Adobe Illustrator 27.0.1, SVG Export Plug-In . SVG Version: 6.00 Build 0)  -->
<svg version="1.1" id="Logo" xmlns="http://www.w3.org/2000/svg" xmlns:xlink="http://www.w3.org/1999/xlink" x="0px" y="0px"
	 viewBox="0 0 1920 1080" style="enable-background:new 0 0 1920 1080;" xml:space="preserve">
<style type="text/css">
	.st0{fill:#231815;}
	.st1{fill:#3296C8;}
</style>
<g id="Logotype">
	<polygon class="st0" points="1143.77,791.38 1181.53,791.38 1181.53,858.69 1195.61,858.69 1195.61,791.38 1233.37,791.38 
		1233.37,777.94 1143.77,777.94 	"/>
	<path class="st0" d="M894.8,810.58H851.3c-5.57,0-10.09-4.27-10.09-9.54c0-5.31,4.52-9.61,10.09-9.61h58.68V778H851.3
		c-13.33,0-24.14,10.33-24.14,23.04c0,12.65,10.81,22.96,24.14,22.96h43.49c5.55,0,10.06,4.29,10.06,9.6c0,5.3-4.52,9.62-10.06,9.62
		h-62.72v13.42h62.72c13.29,0,24.13-10.33,24.13-23.04C918.92,820.91,908.09,810.58,894.8,810.58z"/>
	<path class="st0" d="M1521.17,810.58h-43.48c-5.56,0-10.07-4.27-10.07-9.54c0-5.31,4.52-9.61,10.07-9.61h58.68V778h-58.68
		c-13.32,0-24.13,10.33-24.13,23.04c0,12.65,10.81,22.96,24.13,22.96h43.48c5.56,0,10.07,4.29,10.07,9.6c0,5.3-4.52,9.62-10.07,9.62
		h-62.71v13.42h62.71c13.3,0,24.15-10.33,24.15-23.04C1545.32,820.91,1534.48,810.58,1521.17,810.58z"/>
	<path class="st0" d="M1659.11,810.58h-43.49c-5.55,0-10.08-4.27-10.08-9.54c0-5.31,4.53-9.61,10.08-9.61h58.68V778h-58.68
		c-13.3,0-24.14,10.33-24.14,23.04c0,12.65,10.84,22.96,24.14,22.96h43.49c5.55,0,10.06,4.29,10.06,9.6c0,5.3-4.52,9.62-10.06,9.62
		h-62.71v13.42h62.71c13.3,0,24.13-10.33,24.13-23.04C1683.23,820.91,1672.41,810.58,1659.11,810.58z"/>
	<polygon class="st0" points="494.43,777.94 479.41,777.94 478.75,777.94 430.84,856.63 446.52,856.63 486.93,789.73 527.32,856.63 
		542.99,856.63 495.08,777.94 	"/>
	<path class="st0" d="M424.08,800.97c0-12.68-10.81-23.03-24.13-23.03h-48.51h-5.66h-8.41v78.69h14.08v-32.62h45.13
		c5.42,0.15,9.77,4.38,9.77,9.56v23.06h14.09v-23.06c0-5.51-2.07-10.6-5.5-14.58C420.5,814.78,424.08,808.27,424.08,800.97z
		 M399.95,810.58h-3.16c-0.18,0-0.34-0.01-0.52-0.01h-44.84v-19.19h48.51c5.56,0,10.08,4.31,10.08,9.6
		C410.03,806.28,405.51,810.58,399.95,810.58z"/>
	<polygon class="st0" points="236.77,777.94 236.77,791.38 236.77,856.63 250.82,856.63 250.82,824.02 320.43,824.02 320.43,810.61 
		250.82,810.61 250.82,791.38 320.43,791.38 320.43,777.94 250.82,777.94 	"/>
	<path class="st0" d="M675.06,784.88v6.55v44.22c0,11.57,9.88,20.98,22.01,20.98h61.67v-13.42h-61.67c-4.38,0-7.95-3.39-7.95-7.56
		v-11.63h69.61v-13.41h-69.61v-19.18h69.61V778h-83.68V784.88z"/>
	<rect x="1560.62" y="777.94" class="st0" width="14.09" height="78.69"/>
	<polygon class="st0" points="1320.5,813.19 1259,813.19 1259,777.94 1244.93,777.94 1244.93,856.63 1259,856.63 1259,826.6 
		1320.5,826.6 1320.5,856.63 1334.59,856.63 1334.59,777.94 1320.5,777.94 	"/>
	<polygon class="st0" points="1119.03,842.66 1062.79,777.94 1057.51,777.94 1044.54,777.94 1043.45,777.94 1043.45,856.63 
		1057.51,856.63 1057.51,791.77 1113.88,856.63 1119.03,856.63 1132.12,856.63 1133.1,856.63 1133.1,777.94 1119.03,777.94 	"/>
	<polygon class="st0" points="976.39,814.62 937.32,777.94 918.13,777.94 969.35,825.28 969.35,858.69 983.43,858.69 983.43,825.28 
		1034.66,777.94 1015.47,777.94 	"/>
	<polygon class="st0" points="641.44,777.94 639.59,777.94 603.93,843.99 568.24,777.94 566.41,777.94 553.2,777.94 552.32,777.94 
		552.32,856.63 566.41,856.63 566.41,800.94 596.15,856.63 596.67,856.63 611.18,856.63 611.71,856.63 641.44,800.94 641.44,856.63 
		655.51,856.63 655.51,777.94 654.63,777.94 	"/>
	<path class="st0" d="M1354.11,784.88v6.55v44.22c0,11.57,9.86,20.98,22,20.98h61.67v-13.42h-61.67c-4.38,0-7.93-3.39-7.93-7.56
		v-11.63h69.6v-13.41h-69.6v-19.18h69.6V778h-83.66V784.88z"/>
</g>
<g id="Logomark">
	<path class="st0" d="M859.82,537.8c-5.11,0-10.11-1.38-14.44-3.99l-12.1-7.28l309.37-143.68c2.42-1.15,4.01-3.33,4.18-5.78
		c0.13-2.46-1.16-4.79-3.45-6.17l-108.8-65.46L1060.7,293l103.65,62.37c8.32,5.01,13.13,13.93,12.59,23.29
		c-0.51,9.34-6.32,17.69-15.15,21.8L871.71,535.18C868.01,536.89,863.9,537.8,859.82,537.8L859.82,537.8z"/>
	<path class="st1" d="M755.64,403.69c-8.31-5.01-13.13-13.94-12.59-23.27c0.52-9.34,6.33-17.7,15.14-21.81l290.08-134.73
		c3.58-1.68,7.68-2.57,11.82-2.57c5.23,0,10.24,1.35,14.5,3.93l11.99,7.22L777.35,376.19c-2.43,1.14-4.01,3.35-4.17,5.79
		c-0.15,2.45,1.14,4.8,3.43,6.16L886.05,454l-26.12,12.44L755.64,403.69z"/>
	<path class="st0" d="M859.82,682.99c-5.11,0-10.11-1.38-14.44-3.98l-12.1-7.29l309.37-143.69c2.42-1.12,4.01-3.32,4.18-5.77
		c0.13-2.45-1.16-4.8-3.45-6.17l-8.79-5.28l26.4-12.29l3.36,2.01c8.32,5,13.13,13.94,12.59,23.28c-0.51,9.35-6.32,17.7-15.15,21.81
		L871.71,680.36C868.01,682.08,863.9,682.99,859.82,682.99L859.82,682.99z"/>
	<path class="st0" d="M859.82,610.39c-5.11,0-10.11-1.37-14.44-3.98l-12.1-7.29l309.37-143.68c2.42-1.15,4.01-3.33,4.18-5.79
		c0.13-2.45-1.16-4.77-3.45-6.14l-8.76-5.3l26.37-12.27l3.36,2.01c8.32,5.01,13.13,13.94,12.59,23.27
		c-0.51,9.36-6.32,17.72-15.15,21.83L871.71,607.77C868.01,609.5,863.9,610.39,859.82,610.39L859.82,610.39z"/>
	<path class="st1" d="M755.64,476.29c-8.31-5.01-13.13-13.91-12.59-23.28c0.52-9.34,6.33-17.69,15.14-21.81l0.43-0.19l24.83,14.94
		l-6.11,2.86c-2.43,1.13-4.01,3.33-4.17,5.78c-0.15,2.43,1.14,4.79,3.43,6.16l69.68,41.93l-26.37,12.3L755.64,476.29z"/>
	<path class="st1" d="M755.64,548.88c-8.31-5-13.13-13.92-12.59-23.3c0.52-9.31,6.33-17.69,15.14-21.79l0.43-0.21l24.83,14.95
		l-6.11,2.86c-2.43,1.12-4.01,3.32-4.17,5.78c-0.15,2.45,1.14,4.77,3.43,6.17l69.68,41.93l-26.37,12.27L755.64,548.88z"/>
	<polygon class="st0" points="974.74,356.68 949.95,341.78 832.8,396.4 857.63,411.33 	"/>
</g>
</svg>
